# xmcd CD database file generated by Grip 3.2.0
# 
# Track frame offsets:
#       150
#       26087
#       48035
# 
# Disc length: 897 seconds
# 
# Revision: 1
# Processed by: cddbd v1.5.1PL2 Copyright (c) Steve Scherf et al.
# Submitted via: Grip 3.2.0
# 
DISCID=1a037f03
DTITLE=NANANINE - 1 WISH
DYEAR=2005
DGENRE=JPop
TTITLE0=SUNWORSHIP
TTITLE1=1 WISH
TTITLE2=100 WISHES
EXTD=YEAR: 2005
EXTT0=
EXTT1=
EXTT2=
PLAYORDER=
